<?xml version="1.0" standalone="no"?>
<!DOCTYPE svg PUBLIC "-//W3C//DTD SVG 20010904//EN"
 "http://www.w3.org/TR/2001/REC-SVG-20010904/DTD/svg10.dtd">
<svg version="1.0" xmlns="http://www.w3.org/2000/svg"
 width="592.000000pt" height="592.000000pt" viewBox="0 0 592.000000 592.000000"
 preserveAspectRatio="xMidYMid meet">
<metadata>
Created by potrace 1.11, written by Peter Selinger 2001-2013
</metadata>
<g transform="translate(0.000000,592.000000) scale(0.100000,-0.100000)"
fill="#000000" stroke="none">
<path d="M659 5626 c-3 -3 -17 -7 -32 -10 -103 -19 -223 -70 -311 -133 -49
-36 -166 -151 -166 -165 0 -4 -6 -13 -13 -20 -40 -45 -108 -203 -124 -291 -17
-93 -6 -286 19 -357 3 -8 14 -37 23 -65 10 -27 26 -62 36 -77 11 -14 19 -30
19 -35 0 -10 101 -138 127 -162 41 -37 102 -81 112 -81 6 0 11 -4 11 -10 0 -5
6 -10 14 -10 8 0 16 -4 18 -8 3 -8 130 -65 145 -64 4 0 18 -4 30 -9 13 -5 44
-12 70 -16 58 -10 4582 -11 4638 -1 59 10 74 14 140 38 33 12 68 24 78 27 9 3
17 9 17 14 0 5 6 9 14 9 29 0 169 117 231 193 51 62 125 212 140 282 18 84 20
107 19 190 0 103 -6 148 -30 225 -80 266 -311 471 -589 526 -58 11 -463 13
-2351 14 -1254 0 -2283 -2 -2285 -4z"/>
<path d="M688 3715 c-2 -1 -24 -5 -49 -8 -59 -7 -195 -54 -231 -78 -14 -11
-29 -19 -33 -19 -21 0 -215 -167 -215 -185 0 -2 -17 -30 -38 -62 -109 -165
-147 -402 -97 -593 21 -83 77 -204 115 -252 17 -20 30 -39 30 -42 0 -9 86 -92
126 -122 22 -16 41 -32 44 -36 14 -19 186 -90 261 -107 83 -20 124 -20 2375
-20 1260 -1 2294 2 2298 6 4 4 19 9 34 11 47 6 158 48 224 85 175 99 310 276
364 477 17 66 24 249 12 320 -8 46 -47 162 -59 174 -5 6 -9 18 -9 28 0 10 -4
18 -10 18 -5 0 -9 3 -8 8 5 13 -73 121 -126 175 -29 29 -70 64 -90 76 -20 13
-42 28 -49 35 -13 13 -153 75 -174 78 -1 0 -24 7 -50 16 -44 15 -257 16 -2345
18 -1263 1 -2298 1 -2300 -1z"/>
<path d="M626 1794 c-77 -15 -204 -61 -224 -81 -7 -7 -18 -13 -24 -13 -17 0
-118 -79 -166 -130 -66 -69 -153 -212 -169 -275 -1 -5 -10 -37 -19 -70 -12
-42 -17 -95 -17 -175 0 -140 5 -171 43 -268 57 -147 139 -259 254 -346 44 -33
157 -97 171 -96 3 0 18 -6 33 -13 26 -13 53 -21 132 -35 51 -10 4607 -9 4657
1 144 27 295 109 401 216 45 45 132 162 132 176 0 3 11 28 24 57 22 48 36 93
54 168 13 54 5 255 -12 320 -36 136 -124 285 -220 374 -88 80 -239 162 -341
182 -11 2 -31 7 -45 11 -14 4 -1053 8 -2310 9 -1864 1 -2298 -1 -2354 -12z"/>
</g>
</svg>
