<svg xmlns="http://www.w3.org/2000/svg" xmlns:xlink="http://www.w3.org/1999/xlink" width="30" height="125" viewBox="0 0 30 125"><svg data-name="Layer 1" width="29.499" height="30" viewBox="0 0 29.499 30" id="career-profile" y="0"><title>career-profile-alt</title><path d="M8.027 3.7A3.89 3.89 0 0 0 7.5 5.5l.107 2.028c-.665.1-1.761.135-2.107.972a2.367 2.367 0 0 0 0 1c.127.919.346 1.939 1.231 2.215a8.426 8.426 0 0 0 1.11.264l-.118-2.225L8 15c0 1.61.863 2.493 2.26 3.292L15 20V.5h-1.422a6.28 6.28 0 0 0-5.551 3.2zM11.484 22L2.5 25.493l-.007.007L.5 29.482a.014.014 0 0 0 .013.018h14.466a.014.014 0 0 0 .014-.014V20L11.5 18.741l-.006 3.246a.016.016 0 0 1-.01.013z" fill="#33bbed"></path><path d="M19.737 18.292C21.137 17.493 22 16.61 22 15l.159-3.021a8.307 8.307 0 0 0 1.111-.264c.885-.276 1.1-1.3 1.23-2.215a2.35 2.35 0 0 0 0-1c-.346-.837-1.441-.873-2.107-.972L22.5 5.5a3.89 3.89 0 0 0-.528-1.8A6.279 6.279 0 0 0 16.421.5H15V20zM18.506 21.987l-.006-3.246L15.006 20v9.486a.014.014 0 0 0 .014.014h14.466a.013.013 0 0 0 .012-.018L27.507 25.5l-.008-.007L18.515 22a.014.014 0 0 1-.009-.013z" fill="#ec1670"></path><path d="M7.587 3.466A4.331 4.331 0 0 0 7 5.526l.082 1.568a2.313 2.313 0 0 0-2.045 1.215A2.544 2.544 0 0 0 5 9.569c.1.723.307 2.229 1.577 2.625.276.086.546.153.781.2L7.5 15a4.14 4.14 0 0 0 2.512 3.726l.026.013a.538.538 0 0 0 .055.024l.906.326v2.565L2.3 25.033a.53.53 0 0 0-.258.243L.034 29.3a.525.525 0 0 0 .054.476.527.527 0 0 0 .424.224h14.467a.522.522 0 0 0 .513-.513V29H29v-1H15.492v-1H28v-1H15.492v-1H24.5v-1h-9.008v-1H20v-1h-4.508v-1H18.5v-1h-3v-1H19v-1h-3.5v-1H22v-1h-6.5v-1H22v-1h-6.5v-1h7v-1h-7v-1h9v-1h-9V9h9V8h-9V7h7V6h-7V5h7V4h-7V3h6V2h-6V1h4.02V0H13.578a6.756 6.756 0 0 0-5.991 3.466zm-.28 7.892a8.51 8.51 0 0 1-.428-.12c-.552-.172-.752-.846-.889-1.836a1.959 1.959 0 0 1-.029-.711c.155-.375.611-.507 1.174-.594L7.2 9.355zM14.492 29H1.3l1.554-3.109 8.8-3.421a.527.527 0 0 0 .338-.482v-2.536l2.5.9V29zm-.914-28h.922v18.288l-4.028-1.451c-1.436-.829-1.972-1.6-1.972-2.864l-.159-3.02L8.106 7.5 8 5.5a3.408 3.408 0 0 1 .468-1.558A5.757 5.757 0 0 1 13.578 1z" fill="#0c152c"></path></svg><svg data-name="Layer 1" width="30" height="30" viewBox="0 0 30 30" id="experiences" y="30"><title>Experiences Icon</title><path d="M26 15.5a.945.945 0 0 0-1 1v-2a1 1 0 0 0-2 0v-2a1 1 0 0 0-2 0v2a1 1 0 0 0-2 0v7a2.006 2.006 0 0 0-2-2V25l2 4.5h8v-13a.945.945 0 0 0-1-1z" fill="#ec1670"></path><path d="M15 7.5H.5V21H3v-4.5a.945.945 0 0 1 1-1 .945.945 0 0 1 1 1v-2a.945.945 0 0 1 1-1 .945.945 0 0 1 1 1v-2a.945.945 0 0 1 1-1 .945.945 0 0 1 1 1v2a.945.945 0 0 1 1-1 .945.945 0 0 1 1 1v7a2.006 2.006 0 0 1 2-2V21h4v-1.5a2.006 2.006 0 0 1 2 2v-7a1 1 0 0 1 2 0v-2a1 1 0 0 1 2 0v2a1 1 0 0 1 2 0v2a1 1 0 0 1 2 0V21h2.5V7.5H15z" fill="#33bbed"></path><path d="M11 21.5v-7a.945.945 0 0 0-1-1 .945.945 0 0 0-1 1v-2a.945.945 0 0 0-1-1 .945.945 0 0 0-1 1v2a.945.945 0 0 0-1-1 .945.945 0 0 0-1 1v2a.945.945 0 0 0-1-1 .945.945 0 0 0-1 1v13h8l2-4.5v-5.5a2.006 2.006 0 0 0-2 2z" fill="#ec1670"></path><path d="M29.5 7h-8V4.2l1.6 1.6.7-.7-2.5-2.5a.483.483 0 0 0-.7 0l-2.5 2.5.7.7 1.6-1.6V7h-5V1.7L17 3.3l.7-.7L15.2.1a.483.483 0 0 0-.7 0L12 2.6l.7.7 1.6-1.6V7h-5V4.2l1.6 1.6.7-.7-2.2-2.5a.483.483 0 0 0-.7 0L6.1 5.1l.7.7 1.6-1.6V7h-8a.458.458 0 0 0-.4.5V21a.472.472 0 0 0 .5.5h2v8a.472.472 0 0 0 .5.5h8a.55.55 0 0 0 .5-.3l2-4.5v-3.7h3v3.7l2 4.5a.55.55 0 0 0 .5.3h8a.472.472 0 0 0 .5-.5v-8h2a.472.472 0 0 0 .5-.5V7.5a.472.472 0 0 0-.5-.5zm-17 17.9L10.7 29H3.5V16.5A.472.472 0 0 1 4 16a.472.472 0 0 1 .5.5v4h1v-6a.5.5 0 0 1 1 0v6h1v-8a.5.5 0 0 1 1 0v8h1v-6a.5.5 0 0 1 1 0V23h1v-1.5a1.412 1.412 0 0 1 1-1.4zm14 4.1h-7.2l-1.8-4.1v-4.8a1.5 1.5 0 0 1 1 1.4V23h1v-8.5a.5.5 0 0 1 1 0v6h1v-8a.5.5 0 0 1 1 0v8h1v-6a.5.5 0 0 1 1 0v6h1v-4a.5.5 0 0 1 1 0zm2.5-8.5h-1.5v-4A1.538 1.538 0 0 0 26 15a.9.9 0 0 0-.5.1v-.6A1.538 1.538 0 0 0 24 13a.9.9 0 0 0-.5.1v-.6a1.5 1.5 0 0 0-3 0v.6a.9.9 0 0 0-.5-.1 1.538 1.538 0 0 0-1.5 1.5v5A2.456 2.456 0 0 0 17 19a.472.472 0 0 0-.5.5v1h-3v-1a.472.472 0 0 0-.5-.5 2.456 2.456 0 0 0-1.5.5v-5A1.538 1.538 0 0 0 10 13a.9.9 0 0 0-.5.1v-.6a1.5 1.5 0 0 0-3 0v.6A.9.9 0 0 0 6 13a1.538 1.538 0 0 0-1.5 1.5v.6A.9.9 0 0 0 4 15a1.538 1.538 0 0 0-1.5 1.5v4H1V8h28z" fill="#0c152c"></path><path fill="#0c152c" d="M2 9h4v1H2zM7.5 9h4v1h-4zM13 9h4v1h-4zM18.5 9h4v1h-4zM24 9h4v1h-4zM4.5 11h1v1h-1zM10.5 11H14v1h-3.5zM16 11h3.5v1H16zM24.5 11h1v1h-1zM26.5 11H28v1h-1.5zM2 11h1.5v1H2zM2 13h1.5v1H2zM13 13h4v1h-4zM26.5 13H28v1h-1.5zM12.5 15H14v1h-1.5zM16 15h1.5v1H16zM13 17h4v1h-4z"></path></svg><svg data-name="Layer 1" width="20.448" height="19.968" viewBox="0 0 15.319 15" id="github" y="60"><title>github</title><path data-name="Github" d="M7.659 0a7.695 7.695 0 0 0-2.42 14.987c.383.07.522-.167.522-.371 0-.182-.006-.666-.01-1.308-2.131.465-2.58-1.031-2.58-1.031a2.029 2.029 0 0 0-.851-1.124c-.695-.477.053-.468.053-.468a1.61 1.61 0 0 1 1.173.793 1.626 1.626 0 0 0 2.229.638 1.652 1.652 0 0 1 .487-1.028c-1.7-.194-3.489-.853-3.489-3.8a2.98 2.98 0 0 1 .788-2.064 2.772 2.772 0 0 1 .075-2.035s.643-.206 2.106.789a7.231 7.231 0 0 1 3.836 0c1.462-1 2.1-.789 2.1-.789a2.769 2.769 0 0 1 .076 2.035 2.974 2.974 0 0 1 .787 2.064c0 2.954-1.79 3.6-3.5 3.8a1.837 1.837 0 0 1 .52 1.424c0 1.028-.009 1.857-.009 2.109 0 .206.138.445.526.37A7.7 7.7 0 0 0 7.659 0" fill="#33bbed"></path></svg><svg data-name="Layer 1" width="15" height="15" viewBox="0 0 15 15" id="mail" y="80"><title>mail</title><path d="M14.854.061a.342.342 0 0 0-.364-.016L.172 8.227a.341.341 0 0 0 .061.619l4.276 1.425 1.648 4.5a.341.341 0 0 0 .32.224h.039a.339.339 0 0 0 .225-.129l2.428-3.044 3.337 1.112a.331.331 0 0 0 .108.018.342.342 0 0 0 .336-.285L15 .4a.341.341 0 0 0-.146-.339zM5.169 10.09l6.667-6.514-5.153 6.949a.343.343 0 0 0-.065.162l-.308 2.524z" fill="#33bbed"></path></svg><svg data-name="Layer 1" width="30" height="30" viewBox="0 0 30 30" id="skills-proficiency" y="95"><title>skills-proficiency</title><path fill="#33bbed" d="M.5 4.5v25h29v-25H.5z"></path><path fill="#ec1670" d="M10.5.5H.5v4h29v-4h-19z"></path><path d="M29.5 0H.5a.5.5 0 0 0-.5.5v29a.5.5 0 0 0 .5.5h29a.5.5 0 0 0 .5-.5V.5a.5.5 0 0 0-.5-.5zM29 29H1V5h28zm0-25H1V1h28z" fill="#0c152c"></path><path fill="#0c152c" d="M2 2h1v1H2zM4 2h1v1H4zM6 2h1v1H6zM4.439 11.528l.833-.833-1.35-1.35L5.272 8l-.833-.833-1.766 1.762a.586.586 0 0 0 0 .832zM9.983 11.528l1.766-1.767a.588.588 0 0 0 0-.832L9.983 7.162 9.15 8l1.35 1.35-1.35 1.35zM6.033 10.523h2.355v1.178H6.033zM3.678 13.467h2.944v1.178H3.678zM7.8 13.467h14.721v1.178H7.8zM3.678 15.822h2.944V17H3.678zM7.8 15.822h14.721V17H7.8zM3.678 18.178h2.944v1.178H3.678zM7.8 18.178h14.721v1.178H7.8zM3.678 20.533h2.944v1.178H3.678zM7.8 20.533h14.721v1.178H7.8zM4.439 23.65l-1.766 1.766a.587.587 0 0 0 0 .833l1.766 1.767.833-.833-1.35-1.35 1.35-1.35zM7.272 27.336l1.719-3.528 1.059.516-1.72 3.528zM12.338 23.65l-.833.833 1.351 1.35-1.351 1.35.833.833 1.767-1.767a.589.589 0 0 0 0-.833z"></path></svg></svg>