<svg xmlns="http://www.w3.org/2000/svg" xmlns:xlink="http://www.w3.org/1999/xlink" width="32" height="98" viewBox="0 0 32 98"><svg width="32" height="32.5" id="career-profile" y="0"><path d="M16.3.5h-1.5a6.773 6.773 0 0 0-6 3.5 4.793 4.793 0 0 0-.7 2l.1 2.2c-.7.1-1.9.1-2.2 1a2.054 2.054 0 0 0 0 1.1c.1 1 .4 2.1 1.3 2.4l1.2.3.2 3.3c0 1.7.9 2.7 2.5 3.6l1.2.4.2 3.6-9.7 3.8L.5 32h15.7V.5z" fill="#27aae1"></path><path d="M32 32l-2.2-4.3-9.7-3.8.1-3.6 1.3-.5C23 18.9 24 18 24 16.2V13l1.2-.3c1-.3 1.2-1.4 1.3-2.4a2.054 2.054 0 0 0 0-1.1c-.4-.9-1.6-.9-2.3-1.1l.2-2.1a3.606 3.606 0 0 0-.6-2 6.773 6.773 0 0 0-6-3.5h-1.5v31.4L32 32z" fill="#f7181f"></path><path d="M8.2 3.8A4.032 4.032 0 0 0 7.6 6l.1 1.7A2.485 2.485 0 0 0 5.5 9a3.295 3.295 0 0 0 0 1.4c.1.8.3 2.4 1.7 2.8a3.091 3.091 0 0 0 .8.2l.2 2.8a4.362 4.362 0 0 0 2.7 4h.1l1 .4v2.8l-9.4 3.7c-.1.1-.2.1-.3.3L0 31.8a.902.902 0 0 0 .1.5c.1.2.3.2.5.2h15.7a.645.645 0 0 0 .6-.6v-.5h14.7v-1.1H16.8v-1.1h13.6v-1.1H16.8V27h9.8v-1h-9.8v-1h4.9v-1.1h-4.9v-1.1h3.3v-1.1h-3.3v-1.1h3.8v-1.1h-3.8v-1.1h7.1v-1.1h-7.1v-1.1h7.1v-1.1h-7.1V14h7.6v-1h-7.6v-1.1h9.8v-1.1h-9.8v-1h9.8V8.7h-9.8V7.6h7.6V6.5h-7.6V5.4h7.6V4.3h-7.6v-1h6.5V2.2h-6.5V1.1h4.4V0h-6.4a7.365 7.365 0 0 0-6.6 3.8zm-.3 8.5a4.331 4.331 0 0 0-.5-.1c-.6-.2-.8-.9-1-2a1.104 1.104 0 0 1 0-.8c.2-.4.7-.5 1.3-.6l.1 1.4zm7.8 19.2H1.4l1.7-3.4 9.5-3.7a.664.664 0 0 0 .4-.5v-2.8l2.7 1zm-1-30.4h1v19.8l-4.4-1.6c-1.6-.9-2.1-1.7-2.1-3.1L9 13l-.2-4.9L8.7 6a3.371 3.371 0 0 1 .5-1.7 6.224 6.224 0 0 1 5.5-3.2z" fill="#020532"></path></svg><svg width="32" height="32.051" id="experiences" y="33"><path d="M16 8.053H.537V22.45h2.666v-4.8a1.008 1.008 0 0 1 1.067-1.066 1.008 1.008 0 0 1 1.066 1.067v-2.133a1.008 1.008 0 0 1 1.067-1.067 1.008 1.008 0 0 1 1.066 1.067v-2.134a1.008 1.008 0 0 1 1.067-1.066A1.008 1.008 0 0 1 9.6 13.385v2.134a1.008 1.008 0 0 1 1.067-1.067 1.008 1.008 0 0 1 1.067 1.067v7.465a2.14 2.14 0 0 1 2.133-2.133v1.6h4.266v-1.6a2.14 2.14 0 0 1 2.133 2.133V15.52a1.067 1.067 0 0 1 2.133 0v-2.134a1.067 1.067 0 1 1 2.133 0v2.134a1.067 1.067 0 0 1 2.133 0v2.133a1.067 1.067 0 0 1 2.133 0v4.8h2.667v-14.4z" fill="#27aae1"></path><path d="M27.733 16.585a1.008 1.008 0 0 0-1.067 1.067v-2.133a1.067 1.067 0 0 0-2.133 0v-2.134a1.067 1.067 0 1 0-2.133 0v2.134a1.067 1.067 0 0 0-2.133 0v7.465a2.14 2.14 0 0 0-2.133-2.133v5.866l2.133 4.8h8.532V17.652a1.008 1.008 0 0 0-1.066-1.067zm-15.998 6.399V15.52a1.008 1.008 0 0 0-1.067-1.067 1.008 1.008 0 0 0-1.067 1.067v-2.134a1.008 1.008 0 0 0-1.066-1.066 1.008 1.008 0 0 0-1.067 1.066v2.134a1.008 1.008 0 0 0-1.066-1.067 1.008 1.008 0 0 0-1.067 1.067v2.133a1.008 1.008 0 0 0-1.066-1.067 1.008 1.008 0 0 0-1.067 1.067v13.865h8.533l2.133-4.8v-5.866a2.14 2.14 0 0 0-2.133 2.133z" fill="#f7181f"></path><g fill="#020532"><path d="M31.466 7.52h-8.533V4.532l1.707 1.706.746-.746-2.666-2.666a.515.515 0 0 0-.728-.019l-.019.019-2.666 2.666.747.746 1.706-1.706v2.986h-5.333V1.867l1.707 1.706.746-.746L16.214.16a.515.515 0 0 0-.728-.018l-.019.018-2.666 2.667.747.746 1.706-1.706v5.652H9.921V4.533l1.707 1.706.746-.746-2.346-2.666a.515.515 0 0 0-.728-.019l-.019.019-2.773 2.666.747.746 1.706-1.706v2.986H.43a.488.488 0 0 0-.427.534V22.45a.503.503 0 0 0 .534.533H2.67v8.533a.503.503 0 0 0 .533.533h8.533a.587.587 0 0 0 .533-.32l2.133-4.8v-3.946h3.2v3.947l2.133 4.8a.587.587 0 0 0 .533.32H28.8a.503.503 0 0 0 .534-.534v-8.533h2.133A.503.503 0 0 0 32 22.45V8.053a.503.503 0 0 0-.533-.534zM13.334 26.61l-1.92 4.374H3.736V17.652a.503.503 0 0 1 .534-.534.503.503 0 0 1 .533.534v4.266h1.066v-6.4a.533.533 0 0 1 1.067 0v6.4h1.067v-8.533a.533.533 0 1 1 1.066 0v8.533h1.067v-6.4a.533.533 0 0 1 1.066 0v9.066h1.067v-1.6a1.506 1.506 0 0 1 1.066-1.493zm14.932 4.374h-7.68l-1.919-4.373v-5.12a1.6 1.6 0 0 1 1.067 1.493v1.6H20.8V15.52a.533.533 0 0 1 1.067 0v6.399h1.066v-8.533a.533.533 0 1 1 1.067 0v8.533h1.066v-6.4a.533.533 0 0 1 1.067 0v6.4H27.2v-4.266a.533.533 0 1 1 1.066 0zm2.666-9.066h-1.6v-4.266a1.64 1.64 0 0 0-1.6-1.6.96.96 0 0 0-.532.106v-.64a1.64 1.64 0 0 0-1.6-1.6.96.96 0 0 0-.534.107v-.64a1.6 1.6 0 0 0-3.2 0v.64a.96.96 0 0 0-.532-.106 1.64 1.64 0 0 0-1.6 1.6v5.332a2.62 2.62 0 0 0-1.6-.533.503.503 0 0 0-.533.533v1.067h-3.2V20.85a.503.503 0 0 0-.533-.533 2.62 2.62 0 0 0-1.6.533v-5.33a1.64 1.64 0 0 0-1.6-1.6.96.96 0 0 0-.533.106v-.64a1.6 1.6 0 1 0-3.2 0v.64a.96.96 0 0 0-.533-.106 1.64 1.64 0 0 0-1.6 1.6v.64a.96.96 0 0 0-.533-.107 1.64 1.64 0 0 0-1.6 1.6v4.266h-1.6V8.586h29.863z"></path><path d="M2.136 9.652h4.266v1.067H2.136zm5.866 0h4.266v1.067H8.002zm5.866 0h4.266v1.067h-4.266zm5.866 0H24v1.067h-4.266zm5.866 0h4.266v1.067H25.6zM4.802 11.786h1.067v1.067H4.802zm6.399 0h3.733v1.067h-3.733zm5.866 0H20.8v1.067h-3.733zm9.066 0H27.2v1.067h-1.067zm2.133 0h1.6v1.067h-1.6zm-26.13 0h1.6v1.067h-1.6zm0 2.133h1.6v1.067h-1.6zm11.732 0h4.266v1.067h-4.266zm14.398 0h1.6v1.067h-1.6zm-14.932 2.133h1.6v1.067h-1.6zm3.733 0h1.6v1.067h-1.6zm-3.199 2.133h4.266v1.067h-4.266z"></path></g></svg><svg width="32" height="32" id="skills-proficiency" y="66"><path fill="#27aae1" d="M.533 4.8v26.667h30.934V4.8H.533z"></path><path fill="#f7181f" d="M11.2.533H.533V4.8h30.934V.533H11.2z"></path><g fill="#020532"><path d="M2.133 2.133H3.2V3.2H2.133zm2.134 0h1.067V3.2H4.267zm2.133 0h1.067V3.2H6.4z"></path><path d="M31.467 0H.533A.533.533 0 0 0 0 .533v30.934A.533.533 0 0 0 .533 32h30.934a.533.533 0 0 0 .533-.533V.533A.533.533 0 0 0 31.467 0zm-.534 30.933H1.067v-25.6h29.866zm0-26.666H1.067v-3.2h29.866z"></path><path d="M4.735 12.297l.888-.889-1.44-1.44 1.44-1.435-.888-.888-1.884 1.88a.625.625 0 0 0-.003.883l.003.004zm5.914 0l1.883-1.885a.627.627 0 0 0 0-.887L10.65 7.638l-.889.894 1.44 1.44-1.44 1.44zm-4.214-1.072h2.512v1.257H6.435zm-2.512 3.14h3.14v1.257h-3.14zm4.397 0h15.702v1.257H8.32zm-4.397 2.512h3.14v1.257h-3.14zm4.397 0h15.702v1.257H8.32zM3.923 19.39h3.14v1.257h-3.14zm4.397 0h15.702v1.257H8.32zm-4.397 2.512h3.14v1.257h-3.14zm4.397 0h15.702v1.257H8.32zm-3.585 3.325L2.85 27.11a.626.626 0 0 0-.003.886l.003.003 1.884 1.885.888-.889-1.44-1.44 1.44-1.44zm3.022 3.932l1.834-3.764 1.13.55-1.834 3.764zm5.403-3.932l-.888.888 1.441 1.44-1.441 1.44.889.889 1.884-1.885a.628.628 0 0 0 0-.889z"></path></g></svg></svg>