<svg xmlns="http://www.w3.org/2000/svg" width="32" height="32.5"><path d="M16.3.5h-1.5a6.773 6.773 0 0 0-6 3.5 4.793 4.793 0 0 0-.7 2l.1 2.2c-.7.1-1.9.1-2.2 1a2.054 2.054 0 0 0 0 1.1c.1 1 .4 2.1 1.3 2.4l1.2.3.2 3.3c0 1.7.9 2.7 2.5 3.6l1.2.4.2 3.6-9.7 3.8L.5 32h15.7V.5z" fill="#27aae1"/><path d="M32 32l-2.2-4.3-9.7-3.8.1-3.6 1.3-.5C23 18.9 24 18 24 16.2V13l1.2-.3c1-.3 1.2-1.4 1.3-2.4a2.054 2.054 0 0 0 0-1.1c-.4-.9-1.6-.9-2.3-1.1l.2-2.1a3.606 3.606 0 0 0-.6-2 6.773 6.773 0 0 0-6-3.5h-1.5v31.4L32 32z" fill="#f7181f"/><path d="M8.2 3.8A4.032 4.032 0 0 0 7.6 6l.1 1.7A2.485 2.485 0 0 0 5.5 9a3.295 3.295 0 0 0 0 1.4c.1.8.3 2.4 1.7 2.8a3.091 3.091 0 0 0 .8.2l.2 2.8a4.362 4.362 0 0 0 2.7 4h.1l1 .4v2.8l-9.4 3.7c-.1.1-.2.1-.3.3L0 31.8a.902.902 0 0 0 .1.5c.1.2.3.2.5.2h15.7a.645.645 0 0 0 .6-.6v-.5h14.7v-1.1H16.8v-1.1h13.6v-1.1H16.8V27h9.8v-1h-9.8v-1h4.9v-1.1h-4.9v-1.1h3.3v-1.1h-3.3v-1.1h3.8v-1.1h-3.8v-1.1h7.1v-1.1h-7.1v-1.1h7.1v-1.1h-7.1V14h7.6v-1h-7.6v-1.1h9.8v-1.1h-9.8v-1h9.8V8.7h-9.8V7.6h7.6V6.5h-7.6V5.4h7.6V4.3h-7.6v-1h6.5V2.2h-6.5V1.1h4.4V0h-6.4a7.365 7.365 0 0 0-6.6 3.8zm-.3 8.5a4.331 4.331 0 0 0-.5-.1c-.6-.2-.8-.9-1-2a1.104 1.104 0 0 1 0-.8c.2-.4.7-.5 1.3-.6l.1 1.4zm7.8 19.2H1.4l1.7-3.4 9.5-3.7a.664.664 0 0 0 .4-.5v-2.8l2.7 1zm-1-30.4h1v19.8l-4.4-1.6c-1.6-.9-2.1-1.7-2.1-3.1L9 13l-.2-4.9L8.7 6a3.371 3.371 0 0 1 .5-1.7 6.224 6.224 0 0 1 5.5-3.2z" fill="#020532"/></svg>