<svg id="47f60514-81c1-4082-b8bc-2bd8b1c65666" data-name="Layer 1" xmlns="http://www.w3.org/2000/svg" width="29.499" height="30" viewBox="0 0 29.499 30"><title>career-profile-alt</title><path d="M8.027,3.7A3.89,3.89,0,0,0,7.5,5.5l.107,2.028c-.665.1-1.761.135-2.107.972a2.367,2.367,0,0,0,0,1c.127.919.346,1.939,1.231,2.215a8.426,8.426,0,0,0,1.11.264L7.723,9.754,8,15c0,1.61.863,2.493,2.26,3.292h0L15,20V.5H13.578A6.28,6.28,0,0,0,8.027,3.7Z" style="fill:#33bbed"/><path d="M11.484,22,2.5,25.493l-.007.007L.5,29.482a.014.014,0,0,0,.013.018H14.979a.014.014,0,0,0,.014-.014V20L11.5,18.741l-.006,3.246A.016.016,0,0,1,11.484,22Z" style="fill:#33bbed"/><path d="M19.737,18.292h0C21.137,17.493,22,16.61,22,15l.159-3.021a8.307,8.307,0,0,0,1.111-.264c.885-.276,1.1-1.3,1.23-2.215a2.35,2.35,0,0,0,0-1c-.346-.837-1.441-.873-2.107-.972L22.5,5.5a3.89,3.89,0,0,0-.528-1.8A6.279,6.279,0,0,0,16.421.5H15V20Z" style="fill:#ec1670"/><path d="M18.506,21.987,18.5,18.741,15.006,20v9.486a.014.014,0,0,0,.014.014H29.486a.013.013,0,0,0,.012-.018L27.507,25.5l-.008-.007L18.515,22A.014.014,0,0,1,18.506,21.987Z" style="fill:#ec1670"/><path d="M7.587,3.466A4.331,4.331,0,0,0,7,5.526l.082,1.568A2.313,2.313,0,0,0,5.037,8.309,2.544,2.544,0,0,0,5,9.569c.1.723.307,2.229,1.577,2.625.276.086.546.153.781.2L7.5,15a4.14,4.14,0,0,0,2.512,3.726l.026.013a.538.538,0,0,0,.055.024l.906.326,0,2.565L2.3,25.033a.53.53,0,0,0-.258.243L.034,29.3a.525.525,0,0,0,.054.476A.527.527,0,0,0,.512,30H14.979a.522.522,0,0,0,.513-.513V29H29V28H15.492V27H28V26H15.492V25H24.5V24H15.492V23H20V22H15.492V21H18.5V20h-3V19H19V18H15.5V17H22V16H15.5V15H22V14H15.5V13h7V12h-7V11h9V10h-9V9h9V8h-9V7h7V6h-7V5h7V4h-7V3h6V2h-6V1h4.02V0H15.012V0L15,0H13.578A6.756,6.756,0,0,0,7.587,3.466Zm-.28,7.892c-.138-.035-.283-.075-.428-.12-.552-.172-.752-.846-.889-1.836a1.959,1.959,0,0,1-.029-.711c.155-.375.611-.507,1.174-.594L7.2,9.355ZM14.492,29H1.3l1.554-3.109,8.8-3.421a.527.527,0,0,0,.338-.482l0-2.536,2.5.9V29ZM13.578,1H14.5V19.288l-4.028-1.451c-1.436-.829-1.972-1.6-1.972-2.864l-.159-3.02h0L8.106,7.5v0L8,5.5a3.408,3.408,0,0,1,.468-1.558A5.757,5.757,0,0,1,13.578,1Z" style="fill:#0c152c"/></svg>