<svg xmlns="http://www.w3.org/2000/svg" width="32" height="32.051"><path d="M16 8.053H.537V22.45h2.666v-4.8a1.008 1.008 0 0 1 1.067-1.066 1.008 1.008 0 0 1 1.066 1.067v-2.133a1.008 1.008 0 0 1 1.067-1.067 1.008 1.008 0 0 1 1.066 1.067v-2.134a1.008 1.008 0 0 1 1.067-1.066A1.008 1.008 0 0 1 9.6 13.385v2.134a1.008 1.008 0 0 1 1.067-1.067 1.008 1.008 0 0 1 1.067 1.067v7.465a2.14 2.14 0 0 1 2.133-2.133v1.6h4.266v-1.6a2.14 2.14 0 0 1 2.133 2.133V15.52a1.067 1.067 0 0 1 2.133 0v-2.134a1.067 1.067 0 1 1 2.133 0v2.134a1.067 1.067 0 0 1 2.133 0v2.133a1.067 1.067 0 0 1 2.133 0v4.8h2.667v-14.4z" fill="#27aae1"/><g fill="#f7181f"><path d="M27.733 16.585a1.008 1.008 0 0 0-1.067 1.067v-2.133a1.067 1.067 0 0 0-2.133 0v-2.134a1.067 1.067 0 1 0-2.133 0v2.134a1.067 1.067 0 0 0-2.133 0v7.465a2.14 2.14 0 0 0-2.133-2.133v5.866l2.133 4.8h8.532V17.652a1.008 1.008 0 0 0-1.066-1.067zM11.735 22.984V15.52a1.008 1.008 0 0 0-1.067-1.067 1.008 1.008 0 0 0-1.067 1.067v-2.134a1.008 1.008 0 0 0-1.066-1.066 1.008 1.008 0 0 0-1.067 1.066v2.134a1.008 1.008 0 0 0-1.066-1.067 1.008 1.008 0 0 0-1.067 1.067v2.133a1.008 1.008 0 0 0-1.066-1.067 1.008 1.008 0 0 0-1.067 1.067v13.865h8.533l2.133-4.8v-5.866a2.14 2.14 0 0 0-2.133 2.133z"/></g><g fill="#020532"><path d="M31.466 7.52h-8.533V4.532l1.707 1.706.746-.746-2.666-2.666a.515.515 0 0 0-.728-.019l-.019.019-2.666 2.666.747.746 1.706-1.706v2.986h-5.333V1.867l1.707 1.706.746-.746L16.214.16a.515.515 0 0 0-.728-.018l-.019.018-2.666 2.667.747.746 1.706-1.706v5.652H9.921V4.533l1.707 1.706.746-.746-2.346-2.666a.515.515 0 0 0-.728-.019l-.019.019-2.773 2.666.747.746 1.706-1.706v2.986H.43a.488.488 0 0 0-.427.534V22.45a.503.503 0 0 0 .534.533h2.133v8.533a.503.503 0 0 0 .533.533h8.533a.587.587 0 0 0 .533-.32l2.133-4.8v-3.946h3.2v3.947l2.133 4.8a.587.587 0 0 0 .533.32h8.532a.503.503 0 0 0 .534-.534v-8.533h2.133a.503.503 0 0 0 .533-.533V8.053a.503.503 0 0 0-.533-.534zM13.334 26.61l-1.92 4.374H3.736V17.652a.503.503 0 0 1 .534-.534.503.503 0 0 1 .533.534v4.266h1.066v-6.4a.533.533 0 0 1 1.067 0v6.4h1.067v-8.533a.533.533 0 1 1 1.066 0v8.533h1.067v-6.4a.533.533 0 0 1 1.066 0v9.066h1.067v-1.6a1.506 1.506 0 0 1 1.066-1.493zm14.932 4.374h-7.68l-1.919-4.373v-5.12a1.6 1.6 0 0 1 1.067 1.493v1.6H20.8V15.52a.533.533 0 0 1 1.067 0v6.399h1.066v-8.533a.533.533 0 1 1 1.067 0v8.533h1.066v-6.4a.533.533 0 0 1 1.067 0v6.4H27.2v-4.266a.533.533 0 1 1 1.066 0zm2.666-9.066h-1.6v-4.266a1.64 1.64 0 0 0-1.6-1.6.96.96 0 0 0-.532.106v-.64a1.64 1.64 0 0 0-1.6-1.6.96.96 0 0 0-.534.107v-.64a1.6 1.6 0 0 0-3.2 0v.64a.96.96 0 0 0-.532-.106 1.64 1.64 0 0 0-1.6 1.6v5.332a2.62 2.62 0 0 0-1.6-.533.503.503 0 0 0-.533.533v1.067h-3.2V20.85a.503.503 0 0 0-.533-.533 2.62 2.62 0 0 0-1.6.533V15.52a1.64 1.64 0 0 0-1.6-1.6.96.96 0 0 0-.533.106v-.64a1.6 1.6 0 1 0-3.2 0v.64a.96.96 0 0 0-.533-.106 1.64 1.64 0 0 0-1.6 1.6v.64a.96.96 0 0 0-.533-.107 1.64 1.64 0 0 0-1.6 1.6v4.266h-1.6V8.586h29.863z"/><path d="M2.136 9.652h4.266v1.067H2.136zM8.002 9.652h4.266v1.067H8.002zM13.868 9.652h4.266v1.067h-4.266zM19.734 9.652H24v1.067h-4.266zM25.6 9.652h4.266v1.067H25.6zM4.802 11.786h1.067v1.067H4.802zM11.201 11.786h3.733v1.067h-3.733zM17.067 11.786H20.8v1.067h-3.733zM26.133 11.786H27.2v1.067h-1.067zM28.266 11.786h1.6v1.067h-1.6zM2.136 11.786h1.6v1.067h-1.6zM2.136 13.919h1.6v1.067h-1.6zM13.868 13.919h4.266v1.067h-4.266zM28.266 13.919h1.6v1.067h-1.6zM13.334 16.052h1.6v1.067h-1.6zM17.067 16.052h1.6v1.067h-1.6zM13.868 18.185h4.266v1.067h-4.266z"/></g></svg>