<svg id="423890bf-2080-41da-8b1d-67617c72b073" data-name="Layer 1" xmlns="http://www.w3.org/2000/svg" width="30" height="30" viewBox="0 0 30 30"><title>Experiences Icon</title><path d="M26,15.5a.945.945,0,0,0-1,1v-2a1,1,0,0,0-2,0v-2a1,1,0,0,0-2,0v2a1,1,0,0,0-2,0v7a2.006,2.006,0,0,0-2-2V25l2,4.5h8v-13A.945.945,0,0,0,26,15.5Z" style="fill:#ec1670"/><path d="M15,7.5H.5V21H3V16.5a.945.945,0,0,1,1-1,.945.945,0,0,1,1,1v-2a.945.945,0,0,1,1-1,.945.945,0,0,1,1,1v-2a.945.945,0,0,1,1-1,.945.945,0,0,1,1,1v2a.945.945,0,0,1,1-1,.945.945,0,0,1,1,1v7a2.006,2.006,0,0,1,2-2V21h4V19.5a2.006,2.006,0,0,1,2,2v-7a1,1,0,0,1,2,0v-2a1,1,0,0,1,2,0v2a1,1,0,0,1,2,0v2a1,1,0,0,1,2,0V21h2.5V7.5H15Z" style="fill:#33bbed"/><path d="M11,21.5v-7a.945.945,0,0,0-1-1,.945.945,0,0,0-1,1v-2a.945.945,0,0,0-1-1,.945.945,0,0,0-1,1v2a.945.945,0,0,0-1-1,.945.945,0,0,0-1,1v2a.945.945,0,0,0-1-1,.945.945,0,0,0-1,1v13h8L13,25V19.5A2.006,2.006,0,0,0,11,21.5Z" style="fill:#ec1670"/><path d="M29.5,7h-8V4.2l1.6,1.6.7-.7L21.3,2.6a.483.483,0,0,0-.7,0L18.1,5.1l.7.7,1.6-1.6V7h-5V1.7L17,3.3l.7-.7L15.2.1a.483.483,0,0,0-.7,0L12,2.6l.7.7,1.6-1.6V7h-5V4.2l1.6,1.6.7-.7L9.4,2.6a.483.483,0,0,0-.7,0L6.1,5.1l.7.7L8.4,4.2V7H.4a.458.458,0,0,0-.4.5V21a.472.472,0,0,0,.5.5h2v8A.472.472,0,0,0,3,30h8a.55.55,0,0,0,.5-.3l2-4.5V21.5h3v3.7l2,4.5a.55.55,0,0,0,.5.3h8a.472.472,0,0,0,.5-.5v-8h2A.472.472,0,0,0,30,21V7.5A.472.472,0,0,0,29.5,7Zm-17,17.9L10.7,29H3.5V16.5A.472.472,0,0,1,4,16a.472.472,0,0,1,.5.5v4h1v-6a.5.5,0,0,1,1,0v6h1v-8a.5.5,0,0,1,1,0v8h1v-6a.5.5,0,0,1,1,0V23h1V21.5a1.412,1.412,0,0,1,1-1.4Zm14,4.1H19.3l-1.8-4.1V20.1a1.5,1.5,0,0,1,1,1.4V23h1V14.5a.5.5,0,0,1,1,0v6h1v-8a.5.5,0,0,1,1,0v8h1v-6a.5.5,0,0,1,1,0v6h1v-4a.5.5,0,0,1,1,0ZM29,20.5H27.5v-4A1.538,1.538,0,0,0,26,15a.9.9,0,0,0-.5.1v-.6A1.538,1.538,0,0,0,24,13a.9.9,0,0,0-.5.1v-.6a1.5,1.5,0,0,0-3,0v.6A.9.9,0,0,0,20,13a1.538,1.538,0,0,0-1.5,1.5v5A2.456,2.456,0,0,0,17,19a.472.472,0,0,0-.5.5v1h-3v-1A.472.472,0,0,0,13,19a2.456,2.456,0,0,0-1.5.5v-5A1.538,1.538,0,0,0,10,13a.9.9,0,0,0-.5.1v-.6a1.5,1.5,0,0,0-3,0v.6A.9.9,0,0,0,6,13a1.538,1.538,0,0,0-1.5,1.5v.6A.9.9,0,0,0,4,15a1.538,1.538,0,0,0-1.5,1.5v4H1V8H29Z" style="fill:#0c152c"/><rect x="2" y="9" width="4" height="1" style="fill:#0c152c"/><rect x="7.5" y="9" width="4" height="1" style="fill:#0c152c"/><rect x="13" y="9" width="4" height="1" style="fill:#0c152c"/><rect x="18.5" y="9" width="4" height="1" style="fill:#0c152c"/><rect x="24" y="9" width="4" height="1" style="fill:#0c152c"/><rect x="4.5" y="11" width="1" height="1" style="fill:#0c152c"/><rect x="10.5" y="11" width="3.5" height="1" style="fill:#0c152c"/><rect x="16" y="11" width="3.5" height="1" style="fill:#0c152c"/><rect x="24.5" y="11" width="1" height="1" style="fill:#0c152c"/><rect x="26.5" y="11" width="1.5" height="1" style="fill:#0c152c"/><rect x="2" y="11" width="1.5" height="1" style="fill:#0c152c"/><rect x="2" y="13" width="1.5" height="1" style="fill:#0c152c"/><rect x="13" y="13" width="4" height="1" style="fill:#0c152c"/><rect x="26.5" y="13" width="1.5" height="1" style="fill:#0c152c"/><rect x="12.5" y="15" width="1.5" height="1" style="fill:#0c152c"/><rect x="16" y="15" width="1.5" height="1" style="fill:#0c152c"/><rect x="13" y="17" width="4" height="1" style="fill:#0c152c"/></svg>