<svg id="83061af9-fe34-4884-875c-8e256319f1b6" data-name="Layer 1" xmlns="http://www.w3.org/2000/svg" width="0.213in" height="0.208in" viewBox="0 0 15.319 15"><title>github</title><g id="01a1b7cc-ffb1-4a60-83c6-27432589d8a5" data-name="Icons"><g id="253f6ba1-896f-44f4-8f2c-5eaa00ba3ed8" data-name="Black"><path id="49569c19-f0c8-4064-bac3-b8adf9043f64" data-name="Github" d="M7.659,0a7.695,7.695,0,0,0-2.42,14.987c.383.07.522-.167.522-.371,0-.182-.006-.666-.01-1.308-2.131.465-2.58-1.031-2.58-1.031a2.029,2.029,0,0,0-.851-1.124c-.695-.477.053-.468.053-.468a1.61,1.61,0,0,1,1.173.793,1.626,1.626,0,0,0,2.229.638,1.652,1.652,0,0,1,.487-1.028c-1.7-.194-3.489-.853-3.489-3.8a2.98,2.98,0,0,1,.788-2.064,2.772,2.772,0,0,1,.075-2.035s.643-.206,2.106.789a7.231,7.231,0,0,1,3.836,0c1.462-1,2.1-.789,2.1-.789a2.769,2.769,0,0,1,.076,2.035,2.974,2.974,0,0,1,.787,2.064c0,2.954-1.79,3.6-3.5,3.8a1.837,1.837,0,0,1,.52,1.424c0,1.028-.009,1.857-.009,2.109,0,.206.138.445.526.37A7.7,7.7,0,0,0,7.659,0" style="fill:#33bbed"/></g></g></svg>