<svg id="ec3031b0-2652-4491-a507-2752272b3978" data-name="Layer 1" xmlns="http://www.w3.org/2000/svg" width="15" height="15" viewBox="0 0 15 15"><title>mail</title><path d="M14.854.061A.342.342,0,0,0,14.49.045L.172,8.227a.341.341,0,0,0,.061.619l4.276,1.425,1.648,4.5a.341.341,0,0,0,.32.224l.039,0a.339.339,0,0,0,.225-.129l2.428-3.044,3.337,1.112a.331.331,0,0,0,.108.018.342.342,0,0,0,.336-.285L15,.4A.341.341,0,0,0,14.854.061ZM5.169,10.09l6.667-6.514L6.683,10.525a.343.343,0,0,0-.065.162L6.31,13.211Z" style="fill:#33bbed"/></svg>