<svg id="47631534-7e93-45a1-aa16-d10085f5a9db" data-name="Layer 1" xmlns="http://www.w3.org/2000/svg" width="30" height="30" viewBox="0 0 30 30"><title>skills-proficiency</title><polygon points="0.5 4.5 0.5 29.5 29.5 29.5 29.5 26.091 29.5 4.5 0.5 4.5" style="fill:#33bbed"/><polygon points="10.5 0.5 7 0.5 6 0.5 5 0.5 4 0.5 3 0.5 2 0.5 0.5 0.5 0.5 4.5 29 4.5 29.5 4.5 29.5 0.5 28 0.5 10.5 0.5" style="fill:#ec1670"/><path d="M29.5,0H.5A.5.5,0,0,0,0,.5v29a.5.5,0,0,0,.5.5h29a.5.5,0,0,0,.5-.5V.5A.5.5,0,0,0,29.5,0ZM29,29H1V5H29ZM29,4H1V1H29Z" style="fill:#0c152c"/><rect x="2" y="2" width="1" height="1" style="fill:#0c152c"/><rect x="4" y="2" width="1" height="1" style="fill:#0c152c"/><rect x="6" y="2" width="1" height="1" style="fill:#0c152c"/><path d="M4.439,11.528l.833-.833-1.35-1.35L5.272,8l-.833-.833L2.673,8.929a.586.586,0,0,0,0,.832Z" style="fill:#0c152c"/><path d="M9.983,11.528l1.766-1.767a.588.588,0,0,0,0-.832L9.983,7.162,9.15,8l1.35,1.35L9.15,10.7Z" style="fill:#0c152c"/><rect x="6.033" y="10.523" width="2.355" height="1.178" style="fill:#0c152c"/><rect x="3.678" y="13.467" width="2.944" height="1.178" style="fill:#0c152c"/><rect x="7.8" y="13.467" width="14.721" height="1.178" style="fill:#0c152c"/><rect x="3.678" y="15.822" width="2.944" height="1.178" style="fill:#0c152c"/><rect x="7.8" y="15.822" width="14.721" height="1.178" style="fill:#0c152c"/><rect x="3.678" y="18.178" width="2.944" height="1.178" style="fill:#0c152c"/><rect x="7.8" y="18.178" width="14.721" height="1.178" style="fill:#0c152c"/><rect x="3.678" y="20.533" width="2.944" height="1.178" style="fill:#0c152c"/><rect x="7.8" y="20.533" width="14.721" height="1.178" style="fill:#0c152c"/><path d="M4.439,23.65,2.673,25.416a.587.587,0,0,0,0,.833l1.766,1.767.833-.833-1.35-1.35,1.35-1.35Z" style="fill:#0c152c"/><rect x="6.698" y="25.241" width="3.925" height="1.178" transform="translate(-18.353 22.302) rotate(-64.024)" style="fill:#0c152c"/><path d="M12.338,23.65l-.833.833,1.351,1.35-1.351,1.35.833.833,1.767-1.767a.589.589,0,0,0,0-.833Z" style="fill:#0c152c"/></svg>