<svg xmlns="http://www.w3.org/2000/svg" width="32" height="32"><path fill="#27aae1" d="M.533 4.8v26.667h30.934V4.8H.533z"/><path fill="#f7181f" d="M11.2.533H.533V4.8H31.467V.533H11.2z"/><g fill="#020532"><path d="M2.133 2.133H3.2V3.2H2.133zM4.267 2.133h1.067V3.2H4.267zM6.4 2.133h1.067V3.2H6.4z"/><path d="M31.467 0H.533A.533.533 0 0 0 0 .533v30.934A.533.533 0 0 0 .533 32h30.934a.533.533 0 0 0 .533-.533V.533A.533.533 0 0 0 31.467 0zm-.534 30.933H1.067v-25.6h29.866zm0-26.666H1.067v-3.2h29.866z"/><path d="M4.735 12.297l.888-.889-1.44-1.44 1.44-1.435-.888-.888-1.884 1.88a.625.625 0 0 0-.003.883l.003.004zM10.649 12.297l1.883-1.885a.627.627 0 0 0 0-.887L10.65 7.638l-.889.894 1.44 1.44-1.44 1.44zM6.435 11.225h2.512v1.257H6.435zM3.923 14.365h3.14v1.257h-3.14zM8.32 14.365h15.702v1.257H8.32zM3.923 16.877h3.14v1.257h-3.14zM8.32 16.877h15.702v1.257H8.32zM3.923 19.39h3.14v1.257h-3.14zM8.32 19.39h15.702v1.257H8.32zM3.923 21.902h3.14v1.257h-3.14zM8.32 21.902h15.702v1.257H8.32zM4.735 25.227L2.85 27.11a.626.626 0 0 0-.003.886l.003.003 1.884 1.885.888-.889-1.44-1.44 1.44-1.44zM7.757 29.159l1.834-3.764 1.13.55-1.834 3.764zM13.16 25.227l-.888.888 1.441 1.44-1.441 1.44.889.889 1.884-1.885a.628.628 0 0 0 0-.889z"/></g></svg>